<svg viewBox="-45 0 512 512.00154" xmlns="http://www.w3.org/2000/svg"><path d="m316.964844 473.484375c-5.003906 14.820313-15.535156 26.207031-28.511719 32.632813-12.460937 6.171874-27.183594 7.769531-41.445313 3.449218l-208.488281-70.367187c-14.820312-5.003907-26.207031-15.535157-32.636719-28.511719-6.417968-12.964844-7.890624-28.375-2.894531-43.164062l82.382813-243.992188c4.050781-11.996094 11.796875-22.09375 22.351562-29.078125l99.070313-82.519531c6.390625-5.59375 17.0625-9.789063 25.394531-11.171875 9.140625-1.523438 18.527344-.7500002 27.285156 2.199219l74.480469 24.988281c9.929687 3.355469 18.316406 9.1875 24.699219 16.570312 6.507812 7.53125 10.9375 16.683594 12.804687 26.464844l28.765625 125.710937c1.476563 5.4375 2.089844 10.960938 1.921875 16.421876-.175781 5.679687-1.183593 11.1875-2.9375 16.363281l-13.117187 38.882812c8.539062 2.882813 17.683594 5.453125 27.523437 7.644531 5.394531 1.191407 8.800781 6.527344 7.605469 11.921876-1.1875 5.394531-6.527344 8.804687-11.921875 7.613281-10.554687-2.351563-20.394531-5.109375-29.601563-8.203125zm-164.578125-123.824219c0-4.578125-2.460938-8.03125-6.792969-9.496094l-52.066406-17.523437c-5.242188-1.753906-10.914063 1.074219-12.671875 6.316406-1.753907 5.238281 1.074219 10.914063 6.316406 12.667969l51.773437 17.425781c1.074219.394531 2.234376.609375 3.441407.609375 5.523437 0 10-5.039062 10-10zm67.65625 15.5625c-6.207031-1.816406-12.824219 3.230469-12.824219 9.625 0 4.472656 2.253906 7.746094 6.421875 9.34375.222656.074219.4375.15625.664063.226563l51.386718 17.292969c5.242188 1.753906 10.917969-1.070313 12.671875-6.3125 1.753907-5.242188-1.074219-10.917969-6.316406-12.671876zm-40.472657-12.855468c-5.519531 0-10 4.476562-10 10 0 5.523437 4.480469 10 10 10 5.523438 0 10-4.476563 10-10 0-5.523438-4.476562-10-10-10zm70.199219-227.621094c.109375-5.523438 4.675781-9.914063 10.199219-9.804688 5.523438.105469 9.914062 4.671875 9.804688 10.195313 0 .113281-.417969 12.523437 4.035156 30.367187.304687-.140625.601562-.28125.898437-.429687 7.710938-3.816407 13.960938-10.570313 16.925781-19.347657 2.976563-8.808593 2.097657-17.996093-1.726562-25.722656-3.820312-7.710937-10.570312-13.960937-19.347656-16.925781-8.8125-2.976563-17.996094-2.097656-25.722656 1.730469-7.710938 3.816406-13.960938 10.566406-16.925782 19.347656-2.976562 8.8125-2.097656 17.996094 1.726563 25.722656 3.820312 7.710938 10.570312 13.960938 19.347656 16.925782 1.644531.554687 3.300781.972656 4.957031 1.265624-4.621094-19.628906-4.175781-33.203124-4.171875-33.324218zm30.214844 49.910156c11.488281 28.847656 35.847656 63.875 87.414063 86.492188l12.824218-38.101563c1.148438-3.390625 1.808594-6.917969 1.917969-10.480469.101563-3.464844-.308594-7.0625-1.292969-10.691406l-28.921875-126.417969c-1.214843-6.699219-3.949219-12.667969-8.414062-17.832031-4.121094-4.769531-9.523438-8.53125-15.914063-10.691406l-74.476562-24.988282c-5.671875-1.910156-11.765625-2.40625-17.71875-1.417968-1.476563.246094-12.707032 4.460937-16.144532 7.046875l-100.191406 83.378906c-6.878906 4.460937-12.089844 11.167969-14.710937 18.933594l-82.386719 243.992187c-3.230469 9.570313-2.273438 19.550782 1.878906 27.941406 4.148438 8.378907 11.484375 15.171876 21.023438 18.394532l206.773437 69.816406c9.570313 3.230469 19.550781 2.277344 27.945313-1.878906 8.371094-4.148438 15.164062-11.476563 18.386718-21.011719l62.988282-186.914063c-60.6875-25.960937-88.28125-67.847656-100.816406-101.609374-20.398438.140624-39.320313-11.386719-48.476563-29.875-13.148437-26.554688-2.25-58.753907 24.296875-71.898438 26.554688-13.148438 58.753906-2.25 71.898438 24.296875 6.089843 12.296875 7.484374 26.914063 2.75 40.941406-4.746094 14.0625-14.734376 24.863281-27.046876 30.957031-1.171874.582032-2.367187 1.121094-3.585937 1.617188zm-156.222656 58.597656 178.523437 60.085938c5.242188 1.753906 10.914063-1.074219 12.667969-6.316406 1.753906-5.242188-1.070313-10.914063-6.316406-12.667969l-178.519531-60.085938c-5.242188-1.753906-10.914063 1.070313-12.667969 6.3125-1.753907 5.242188 1.070312 10.917969 6.3125 12.671875zm-18.296875 54.183594 178.523437 60.085938c5.242188 1.757812 10.914063-1.070313 12.667969-6.3125 1.753906-5.242188-1.074219-10.914063-6.316406-12.667969l-178.519532-60.085938c-5.242187-1.757812-10.914062 1.070313-12.667968 6.3125-1.753906 5.242188 1.070312 10.914063 6.3125 12.667969zm0 0" fill-rule="evenodd"/></svg>